<svg xmlns="http://www.w3.org/2000/svg" viewBox="0 0 24 24">
  <style>
    .outer { animation: flicker .72s ease-in-out infinite alternate; transform-origin: 12px 20px; }
    .inner { animation: glow .48s ease-in-out infinite alternate; transform-origin: 12px 18px; }
    @keyframes flicker { to { transform: translateY(-1px) scale(.93,1.08) rotate(2deg); } }
    @keyframes glow { to { transform: scale(.82,1.12); opacity: .88; } }
    @media (prefers-reduced-motion: reduce) { .outer,.inner { animation: none; } }
  </style>
  <path class="outer" fill="#f97316" d="M13.7 2.2c.5 3.5-1.6 4.7-2.8 6.5-1-1.1-1.3-2.4-1-3.8C6.8 7.3 4.4 10.1 4.4 14c0 4.3 3.4 7.5 7.6 7.5s7.6-3.2 7.6-7.5c0-4.9-3.3-8.8-5.9-11.8Z"/>
  <path class="inner" fill="#facc15" d="M12.3 10.1c.3 2-1.1 2.8-2 4.1-.5-.7-.7-1.4-.6-2.2-1.3 1.2-2.1 2.5-2.1 4.2 0 2.5 2 4.3 4.5 4.3s4.4-1.8 4.4-4.3c0-2.7-2.2-4.8-4.2-6.1Z"/>
  <path fill="#fff7ae" d="M12 14.6c.1 1-.6 1.4-1.1 2-.2-.4-.3-.8-.2-1.2-.7.6-1 1.2-1 2 0 1.2 1 2.1 2.3 2.1s2.3-.9 2.3-2.1c0-1.3-1.2-2.3-2.3-2.8Z"/>
</svg>
