<svg xmlns="http://www.w3.org/2000/svg" width="512" height="320" viewBox="0 0 512 320" shape-rendering="crispEdges">
  <defs>
    <g id="awake">
      <rect x="12" y="28" width="8" height="20" fill="#27303f"/><rect x="8" y="36" width="8" height="12" fill="#27303f"/>
      <rect x="16" y="16" width="32" height="36" fill="#27303f"/><rect x="20" y="20" width="24" height="28" fill="#d58b5b"/>
      <rect x="16" y="12" width="8" height="12" fill="#27303f"/><rect x="40" y="12" width="8" height="12" fill="#27303f"/>
      <rect x="20" y="16" width="4" height="8" fill="#efb07d"/><rect x="40" y="16" width="4" height="8" fill="#efb07d"/>
      <rect x="24" y="28" width="4" height="4" fill="#17202c"/><rect x="36" y="28" width="4" height="4" fill="#17202c"/>
      <rect x="30" y="34" width="4" height="4" fill="#f4c0b5"/><rect x="24" y="44" width="6" height="8" fill="#f1b17e"/><rect x="34" y="44" width="6" height="8" fill="#f1b17e"/>
    </g>
    <g id="look"><use href="#awake"/><rect x="24" y="28" width="4" height="4" fill="#d58b5b"/><rect x="25" y="28" width="4" height="4" fill="#17202c"/><rect x="36" y="28" width="4" height="4" fill="#d58b5b"/><rect x="37" y="28" width="4" height="4" fill="#17202c"/></g>
    <g id="stretch"><use href="#awake" transform="translate(-4 8) scale(1.12 .84)"/></g>
    <g id="celebrate"><use href="#awake"/><rect x="24" y="28" width="4" height="2" fill="#17202c"/><rect x="36" y="28" width="4" height="2" fill="#17202c"/><rect x="29" y="38" width="6" height="4" fill="#8b3a3a"/></g>
    <g id="sleep"><use href="#awake"/><rect x="23" y="27" width="6" height="5" fill="#d58b5b"/><rect x="35" y="27" width="6" height="5" fill="#d58b5b"/><rect x="24" y="30" width="4" height="2" fill="#27303f"/><rect x="36" y="30" width="4" height="2" fill="#27303f"/></g>
  </defs>
  <use href="#awake"/><use href="#awake" transform="translate(64 -2)"/><use href="#awake" transform="translate(128)"/><use href="#awake" transform="translate(192 -1)"/><use href="#awake" transform="translate(256)"/><use href="#awake" transform="translate(320 -2)"/><use href="#awake" transform="translate(384)"/><use href="#awake" transform="translate(448 -1)"/>
  <use href="#look" transform="translate(0 64)"/><use href="#look" transform="translate(62 64)"/><use href="#look" transform="translate(126 64)"/><use href="#look" transform="translate(192 64)"/><use href="#look" transform="translate(258 64)"/><use href="#look" transform="translate(322 64)"/><use href="#look" transform="translate(384 64)"/><use href="#look" transform="translate(446 64)"/>
  <use href="#stretch" transform="translate(0 128)"/><use href="#stretch" transform="translate(64 128)"/><use href="#stretch" transform="translate(128 128)"/><use href="#stretch" transform="translate(192 128)"/><use href="#stretch" transform="translate(256 128)"/><use href="#stretch" transform="translate(320 128)"/><use href="#stretch" transform="translate(384 128)"/><use href="#stretch" transform="translate(448 128)"/>
  <use href="#celebrate" transform="translate(0 192)"/><use href="#celebrate" transform="translate(64 186)"/><use href="#celebrate" transform="translate(128 190)"/><use href="#celebrate" transform="translate(192 184)"/><use href="#celebrate" transform="translate(256 192)"/><use href="#celebrate" transform="translate(320 186)"/><use href="#celebrate" transform="translate(384 190)"/><use href="#celebrate" transform="translate(448 184)"/>
  <use href="#sleep" transform="translate(0 258)"/><use href="#sleep" transform="translate(64 258)"/><use href="#sleep" transform="translate(128 258)"/><use href="#sleep" transform="translate(192 258)"/><use href="#sleep" transform="translate(256 258)"/><use href="#sleep" transform="translate(320 258)"/><use href="#sleep" transform="translate(384 258)"/><use href="#sleep" transform="translate(448 258)"/>
</svg>
