<svg xmlns="http://www.w3.org/2000/svg" width="512" height="320" viewBox="0 0 512 320" shape-rendering="crispEdges">
  <defs>
    <g id="awake">
      <rect x="16" y="16" width="32" height="36" fill="#263445"/><rect x="12" y="24" width="40" height="20" fill="#263445"/>
      <rect x="20" y="20" width="24" height="28" fill="#9b7653"/><rect x="16" y="20" width="12" height="16" fill="#e8d2a3"/><rect x="36" y="20" width="12" height="16" fill="#e8d2a3"/>
      <rect x="20" y="24" width="4" height="4" fill="#111827"/><rect x="40" y="24" width="4" height="4" fill="#111827"/><rect x="30" y="32" width="4" height="6" fill="#e5a72f"/>
      <rect x="20" y="40" width="4" height="8" fill="#c69865"/><rect x="40" y="40" width="4" height="8" fill="#c69865"/><rect x="20" y="52" width="8" height="4" fill="#e5a72f"/><rect x="36" y="52" width="8" height="4" fill="#e5a72f"/>
    </g>
    <g id="look"><use href="#awake"/><rect x="20" y="24" width="4" height="4" fill="#e8d2a3"/><rect x="21" y="24" width="4" height="4" fill="#111827"/><rect x="40" y="24" width="4" height="4" fill="#e8d2a3"/><rect x="41" y="24" width="4" height="4" fill="#111827"/></g>
    <g id="stretch"><use href="#awake" transform="translate(0 4) scale(1 .92)"/><rect x="8" y="30" width="12" height="8" fill="#9b7653"/><rect x="44" y="30" width="12" height="8" fill="#9b7653"/></g>
    <g id="celebrate"><use href="#awake"/><rect x="18" y="23" width="8" height="6" fill="#e8d2a3"/><rect x="38" y="23" width="8" height="6" fill="#e8d2a3"/><rect x="20" y="26" width="4" height="2" fill="#111827"/><rect x="40" y="26" width="4" height="2" fill="#111827"/></g>
    <g id="sleep"><use href="#awake"/><rect x="18" y="22" width="10" height="8" fill="#e8d2a3"/><rect x="36" y="22" width="10" height="8" fill="#e8d2a3"/><rect x="20" y="27" width="6" height="2" fill="#263445"/><rect x="38" y="27" width="6" height="2" fill="#263445"/></g>
  </defs>
  <use href="#awake"/><use href="#awake" transform="translate(64 -2)"/><use href="#awake" transform="translate(128)"/><use href="#awake" transform="translate(192 -2)"/><use href="#awake" transform="translate(256)"/><use href="#awake" transform="translate(320 -2)"/><use href="#awake" transform="translate(384)"/><use href="#awake" transform="translate(448 -2)"/>
  <use href="#look" transform="translate(0 64)"/><use href="#look" transform="translate(62 64)"/><use href="#look" transform="translate(126 64)"/><use href="#look" transform="translate(192 64)"/><use href="#look" transform="translate(258 64)"/><use href="#look" transform="translate(322 64)"/><use href="#look" transform="translate(384 64)"/><use href="#look" transform="translate(446 64)"/>
  <use href="#stretch" transform="translate(0 128)"/><use href="#stretch" transform="translate(64 128)"/><use href="#stretch" transform="translate(128 128)"/><use href="#stretch" transform="translate(192 128)"/><use href="#stretch" transform="translate(256 128)"/><use href="#stretch" transform="translate(320 128)"/><use href="#stretch" transform="translate(384 128)"/><use href="#stretch" transform="translate(448 128)"/>
  <use href="#celebrate" transform="translate(0 192)"/><use href="#celebrate" transform="translate(64 186)"/><use href="#celebrate" transform="translate(128 190)"/><use href="#celebrate" transform="translate(192 184)"/><use href="#celebrate" transform="translate(256 192)"/><use href="#celebrate" transform="translate(320 186)"/><use href="#celebrate" transform="translate(384 190)"/><use href="#celebrate" transform="translate(448 184)"/>
  <use href="#sleep" transform="translate(0 258)"/><use href="#sleep" transform="translate(64 258)"/><use href="#sleep" transform="translate(128 258)"/><use href="#sleep" transform="translate(192 258)"/><use href="#sleep" transform="translate(256 258)"/><use href="#sleep" transform="translate(320 258)"/><use href="#sleep" transform="translate(384 258)"/><use href="#sleep" transform="translate(448 258)"/>
</svg>
